<svg xmlns="http://www.w3.org/2000/svg" width="90" height="90" viewBox="0 0 90 90"><g><g><path fill="#005d83" d="M45 90c24.853 0 45-20.147 45-45S69.853 0 45 0 0 20.147 0 45s20.147 45 45 45z"/></g><g><path fill="#fff" d="M70 33.934V62.22c0 .544-.245 1.051-.673 1.39-.428.34-.981.466-1.516.345-4.286-.972-11.807-2.102-18.941-.364 4.125-3.883 9.949-4.571 13.482-4.58 2.515-.006 4.562-2.043 4.562-4.542V32.155h1.297c.987 0 1.79.798 1.789 1.78zM27.65 59.02c3.531.008 9.356.695 13.481 4.58-7.134-1.738-14.655-.608-18.942.364A1.788 1.788 0 0 1 20 62.23V33.935c0-.982.802-1.78 1.789-1.78h1.297v22.321c0 2.5 2.047 4.538 4.563 4.544zM43.364 33.3c.162.258.246.57.246.902v27.93c-4.813-5.01-11.791-5.874-15.955-5.883a1.79 1.79 0 0 1-1.792-1.78V27.78c0-.477.187-.926.526-1.263.337-.334.781-.517 1.254-.517h.004c4.174.01 11.767.971 15.717 7.3zm18.98 22.949c-4.165.01-11.143.873-15.955 5.883v-27.93c0-.332.084-.644.245-.901C50.586 26.97 58.178 26.01 62.352 26h.004c.473 0 .918.183 1.253.517.34.337.527.786.527 1.263v26.69c0 .977-.804 1.775-1.79 1.779z"/></g></g></svg>