<svg xmlns="http://www.w3.org/2000/svg" width="90" height="90" viewBox="0 0 90 90"><g><g><path fill="#e5005b" d="M45 90c24.853 0 45-20.147 45-45S69.853 0 45 0 0 20.147 0 45s20.147 45 45 45z"/></g><g><path fill="#fff" d="M55.614 41.756c0-3.22 2.613-5.83 5.834-5.83a5.831 5.831 0 0 1 5.834 5.83c0 1.832-.862 3.446-2.184 4.514-1.002.81-2.26 1.314-3.65 1.314-1.388 0-2.646-.505-3.648-1.314-1.323-1.068-2.186-2.682-2.186-4.514zM33.22 56.532v7.03H21.458A1.458 1.458 0 0 1 20 62.104v-6.875c0-6.156 4.99-11.146 11.146-11.146 2.544 0 4.882.862 6.758 2.298-2.862 2.456-4.684 6.093-4.684 10.151zm-9.678-21.928c0-4.2 3.404-7.604 7.604-7.604s7.604 3.404 7.604 7.604-3.404 7.604-7.604 7.604a7.604 7.604 0 0 1-7.604-7.604zm29.712 14.392c-2.268 2.165-3.69 5.208-3.69 8.583v5.973H38.01a1.457 1.457 0 0 1-1.457-1.457v-5.569c0-5.55 4.502-10.05 10.055-10.05 2.551 0 4.873.956 6.645 2.52zM39.75 37.924a6.86 6.86 0 1 1 13.721 0 6.843 6.843 0 0 1-3.145 5.754 6.817 6.817 0 0 1-3.716 1.106 6.81 6.81 0 0 1-3.714-1.106 6.843 6.843 0 0 1-3.146-5.754zM70 57.585v4.519c0 .806-.653 1.458-1.458 1.458H54.356a1.458 1.458 0 0 1-1.459-1.458v-4.519a8.551 8.551 0 1 1 17.103 0z"/></g></g></svg>