<svg xmlns="http://www.w3.org/2000/svg" width="90" height="90" viewBox="0 0 90 90"><g><g><path fill="#004994" d="M45 90c24.853 0 45-20.147 45-45S69.853 0 45 0 0 20.147 0 45s20.147 45 45 45z"/></g><g><path fill="#fff" d="M43.079 27.854a4.925 4.925 0 0 1-4.923-4.927A4.925 4.925 0 0 1 43.079 18 4.926 4.926 0 0 1 48 22.927a4.926 4.926 0 0 1-4.922 4.927m7.619 27.921l1.635-.013 1.72 3.379C51.635 64.361 46.358 68 40.236 68 31.835 68 25 61.166 25 52.766c0-6.875 4.58-12.695 10.85-14.584v11.496a6.098 6.098 0 0 0 6.098 6.097h8.75m14.355 5.85a2.89 2.89 0 0 1-1.266 3.89 2.89 2.89 0 0 1-3.89-1.267l-5.796-11.395h-10.93a4.427 4.427 0 0 1-4.427-4.428V34.261a4.34 4.34 0 0 1 4.34-4.34c3.005 0 4.338 2.542 4.338 4.34V40.8h7.276c1.199 0 2.17.972 2.17 2.17 0 .473-.183.887-.439 1.243-.395.547-1.005.927-1.731.927h-7.276v1.928h8.454c1.089 0 2.085.61 2.577 1.582l6.6 12.975"/></g></g></svg>