<svg xmlns="http://www.w3.org/2000/svg" width="90" height="90" viewBox="0 0 90 90"><g><g><path fill="#57bfc7" d="M45 90c24.853 0 45-20.147 45-45S69.853 0 45 0 0 20.147 0 45s20.147 45 45 45z"/></g><g><path fill="#fff" d="M30 50.957h29.102v4.492c0 4.003-1.637 7.641-4.274 10.278C52.192 68.363 48.554 70 44.551 70c-4.003 0-7.641-1.637-10.278-4.273C31.637 63.09 30 59.452 30 55.449zm14.55-8.301c-.915 0-1.66-.745-1.66-1.66V39.53c0-.915.745-1.66 1.66-1.66h.001c.915 0 1.66.745 1.66 1.66v1.465c0 .915-.745 1.66-1.66 1.66zm14.552-5.927v11.298H46.016v-2.683a4.597 4.597 0 0 0 3.125-4.348V39.53a4.597 4.597 0 0 0-3.125-4.348V29.57h-2.93v5.613a4.596 4.596 0 0 0-3.125 4.348v1.465a4.597 4.597 0 0 0 3.125 4.349v2.682H30V36.73c0-1.97.805-3.76 2.102-5.057a7.137 7.137 0 0 1 5.057-2.102h5.927v-3.32c0-1.83-1.49-3.32-3.32-3.32h-5.567a1.465 1.465 0 1 1 0-2.93h5.567a6.257 6.257 0 0 1 6.25 6.25v3.32h5.926c1.97 0 3.76.805 5.058 2.102a7.137 7.137 0 0 1 2.102 5.057z"/></g></g></svg>