<svg xmlns="http://www.w3.org/2000/svg" width="90" height="90" viewBox="0 0 90 90"><g><g><path fill="#f9b114" d="M45 90c24.853 0 45-20.147 45-45S69.853 0 45 0 0 20.147 0 45s20.147 45 45 45z"/></g><g><path fill="#fff" d="M59.216 53.504a3.783 3.783 0 0 1-3.775-3.787 3.782 3.782 0 0 1 3.775-3.78 3.783 3.783 0 0 1 0 7.567zm-32.158-3.787a3.783 3.783 0 0 1 3.776-3.78 3.784 3.784 0 0 1 0 7.567 3.784 3.784 0 0 1-3.776-3.787zm5.746-16.458c4.902-3.23 19.506-3.23 24.401 0 .957.627 2.182 3.156 3.303 6.256H29.503c1.119-3.1 2.344-5.63 3.301-6.256zm36.914 4.724a1.281 1.281 0 0 0-.994-.477h-4.87c-1.2-3.172-2.762-6.287-4.539-7.46-6.15-4.061-22.474-4.061-28.625 0-1.776 1.173-3.338 4.288-4.545 7.46h-4.863a1.29 1.29 0 0 0-1.256 1.548l.724 3.497A1.273 1.273 0 0 0 22 43.573h1.444c-1.394 1.611-2.07 3.643-2.076 5.666-.011 2.508.938 4.77 2.676 6.375.02.013.038.032.056.044v4.902c0 1.059.858 1.924 1.92 1.924h4.488c1.058 0 1.92-.865 1.92-1.924V58.59h25.15v1.969c0 1.059.857 1.924 1.92 1.924h4.487c1.058 0 1.92-.865 1.92-1.924v-4.808c1.838-1.686 2.72-4.011 2.732-6.336.007-2.094-.7-4.2-2.176-5.843h1.538c.606 0 1.131-.427 1.256-1.022l.72-3.497a1.315 1.315 0 0 0-.257-1.071z"/></g></g></svg>