<svg xmlns="http://www.w3.org/2000/svg" width="90" height="90" viewBox="0 0 90 90"><g><g><path fill="#fc0" d="M45 90c24.853 0 45-20.147 45-45S69.853 0 45 0 0 20.147 0 45s20.147 45 45 45z"/></g><g><path fill="#fff" d="M70 35.668a8.67 8.67 0 1 1-17.34 0 8.67 8.67 0 0 1 17.34 0zm-40.988 19.12c-7.933-7.822-2.073-15.96 4.912-15.96h12.903c2.612 0 4.698 1.153 5.526 3.13l5.503 16.68c.447 1.414.315 3.426-2.221 4.338-2.682.968-4.29-.535-5.114-2.582l-2.213-5.006a.275.275 0 0 0-.27-.247h-9.37c-.401 0-.7.442-.705.832 0 0 .005 2.744 0 3.277-.003.137-.014.003-.02.14-.13 3.597-3.128 3.595-3.128 3.595H22.849c-.41 0-2.706-.472-2.849-3.417 0-4.556 2.992-4.554 2.992-4.554h5.875c.137 0 .202-.1.145-.226z"/></g></g></svg>