<svg xmlns="http://www.w3.org/2000/svg" width="90" height="90" viewBox="0 0 90 90"><g><g><path fill="#8b579f" d="M45 90c24.853 0 45-20.147 45-45S69.853 0 45 0 0 20.147 0 45s20.147 45 45 45z"/></g><g><path fill="#fff" d="M43.205 60.46c-.58-.13.025.18-10.029-5.917a2.64 2.64 0 0 1-1.095-1.328l-3.003-8.056c.128.993 1.044 7.837 1.16 8.74.09.592.373 1.172.837 1.598h-7.579V48.2c-.94 2.926-1.791 6.278-2.462 9.255h8.456l2.63.09c.644.22 1.108.825 1.108 1.547v5.027H17v-5.027c0-.812.58-1.482 1.353-1.611.98-4.408 3.197-10.621 5.543-16.77.541-1.25 1.701-2.036 2.745-2.204.529-.103 2.875-.077 7.58 0a3.812 3.812 0 0 1 3.763 3.854l-.064 6.626L34 43.329l2.681 7.192 7 4.241a4.63 4.63 0 0 0-.477 5.697zM37.8 64.106h-2.613V59.08c0-.412-.065-.8-.194-1.173l2.833 1.714-.026 4.499zm-9.535-33.461a5.646 5.646 0 1 1 11.29 0 5.646 5.646 0 0 1-11.29 0zm22.995 0a5.646 5.646 0 1 1 11.29 0 5.646 5.646 0 0 1-11.29 0zm1.765 33.477l-.025-4.497 5.594-3.389c.734-.438 1.778-.914 1.972-2.345.129-.94 1.044-7.82 1.16-8.735l-3.003 8.053a2.64 2.64 0 0 1-1.096 1.327l-9.255 5.592a2.62 2.62 0 0 1-2.707-4.484l8.469-5.128 2.694-7.203-3.919 5.657-.064-6.623a3.812 3.812 0 0 1 3.764-3.853l6.535-.077c2.1-.026 3.828 1.675 3.854 3.775.013.928-.078 21.917-.078 21.917"/></g></g></svg>