<svg xmlns="http://www.w3.org/2000/svg" width="90" height="90" viewBox="0 0 90 90"><g><g><path fill="#009640" d="M45 90c24.853 0 45-20.147 45-45S69.853 0 45 0 0 20.147 0 45s20.147 45 45 45z"/></g><g><path fill="#fff" d="M62.843 32.076C67.243 34.534 70 39.522 70 45.079c0 6.702-1.533 13.658-12.873 14.446H32.98a2.845 2.845 0 0 1-2.84-2.84 2.847 2.847 0 0 1 2.84-2.848h12.224a.405.405 0 0 0 0-.808H26.897a2.845 2.845 0 0 1-2.84-2.84 2.843 2.843 0 0 1 2.84-2.84h16.682a.407.407 0 1 0 0-.813H23.244A3.246 3.246 0 0 1 20 43.293a3.246 3.246 0 0 1 3.244-3.244h20.335c.227 0 .41-.182.41-.407a.407.407 0 0 0-.41-.406H28.924a3.245 3.245 0 0 1 0-6.487h20.04c.328-.013.629-.013.878-.013h.349c-.074-.47-.393-.91-.86-1.18-2.5-1.429-3.964-3.125-4.757-4.293-.86-1.267-1.394-2.896-1.398-4.246 0-.73.32-1.316.907-1.668.868-.515 2.095-.356 2.433-.178.641.349 1.373.779 1.949 1.481.633.78 1.67 1.56 2.993 2.261.598.314 3.946 2.438 7.93 4.975 1.596 1.014 2.944 1.87 3.455 2.188zM48.09 62.006v2.623h2.626v3.748h-2.626V71H44.34v-2.623h-2.625v-3.748h2.625v-2.623h3.752m11.34.139v1.861h1.858v2.658H59.43v1.862h-2.654v-1.862h-1.858v-2.658h1.858v-1.861h2.654m3.844-18.972h-3.546v-3.546h-5.066v3.546h-3.546v5.066h3.546v3.546h5.066v-3.546h3.546z"/></g></g></svg>