<svg xmlns="http://www.w3.org/2000/svg" width="90" height="90" viewBox="0 0 90 90"><g><g><path fill="#ec6608" d="M45 90c24.853 0 45-20.147 45-45S69.853 0 45 0 0 20.147 0 45s20.147 45 45 45z"/></g><g><path fill="#fff" d="M34.552 49.319c-1.429-2.499-3.124-3.963-4.291-4.755-1.267-.86-2.895-1.394-4.245-1.398-.73 0-1.315.32-1.667.908-.515.866-.357 2.094-.178 2.43.349.642.78 1.374 1.48 1.948.78.634 1.56 1.67 2.261 2.993.313.599 2.436 3.944 4.973 7.927a642.979 642.979 0 0 1 2.186 3.453c2.458 4.398 7.443 7.154 12.999 7.154 6.699 0 13.652-1.532 14.44-12.867V32.975a2.844 2.844 0 0 0-2.84-2.839 2.845 2.845 0 0 0-2.846 2.84v12.218a.404.404 0 0 1-.808 0v-18.3a2.844 2.844 0 0 0-2.839-2.84 2.842 2.842 0 0 0-2.839 2.84V43.57a.407.407 0 1 1-.812 0V23.243A3.244 3.244 0 0 0 46.284 20a3.245 3.245 0 0 0-3.243 3.243V43.57a.408.408 0 0 1-.407.408.407.407 0 0 1-.405-.408V28.92a3.243 3.243 0 0 0-6.485 0v10.211c2.074 2.732 4.188 5.464 4.464 5.822 1.57 2.03 1.715 1.133 5.622 2.066l.007.002h.002c.25.058.493.129.732.212 1.928.661 6.329 2.29 6.329 2.29.83.296 1.277 1.154 1 1.92-.286.759-1.185 1.138-2.022.844 0 0-1.772-.51-1.95-.563-.178-.054-.66-.147-.236.401l5.686 7.357a1.207 1.207 0 1 1-1.911 1.477l-3.693-4.777c-.136-.176-.275-.297-.45-.16a.404.404 0 0 0-.073.564l4.678 6.051a1.207 1.207 0 1 1-1.911 1.477l-4.678-6.052a.403.403 0 0 0-.637.493l4.186 5.415a1.208 1.208 0 0 1-1.911 1.477L44.3 59.395a.403.403 0 0 0-.637.493l3.2 4.14a1.208 1.208 0 0 1-1.91 1.477l-6.647-8.599-.045-.06-3.709-7.527"/></g></g></svg>